<svg width="437" height="407" viewBox="0 0 437 407" fill="none" xmlns="http://www.w3.org/2000/svg">
<ellipse cx="218.5" cy="203.5" rx="218.5" ry="203.5" fill="#02101C"/>
<g style="mix-blend-mode:luminosity">
<path d="M301.592 305.5C291.592 305.5 282.675 300.333 274.842 290C264.175 293.167 254.425 294.75 245.592 294.75C235.925 294.75 228.342 292.917 222.842 289.25C217.342 285.75 214.592 281.333 214.592 276C214.592 271.833 216.342 267.333 219.842 262.5C223.342 257.667 228.758 252.917 236.092 248.25C239.092 246.417 242.342 244.583 245.842 242.75C249.508 240.917 253.425 239.25 257.592 237.75C257.092 232.417 256.842 226.75 256.842 220.75C256.842 207.083 258.342 192.083 261.342 175.75C264.342 159.25 269.342 141.5 276.342 122.5C264.008 128.667 252.675 136 242.342 144.5C232.008 152.833 224.008 161.417 218.342 170.25C216.508 173.25 214.258 174.75 211.592 174.75C209.758 174.75 208.842 173.833 208.842 172C208.842 170.667 209.592 168.667 211.092 166C212.425 163.333 214.842 160 218.342 156C225.008 148.333 233.675 140.917 244.342 133.75C255.008 126.583 266.675 120.417 279.342 115.25C282.175 107.417 285.425 99.75 289.092 92.25C290.092 90.0833 291.592 89 293.592 89C294.925 89 296.008 89.5 296.842 90.5C297.842 91.3333 298.342 92.4167 298.342 93.75C298.342 94.4167 298.175 95.25 297.842 96.25C296.842 98.5833 295.842 100.917 294.842 103.25C294.008 105.583 293.175 107.917 292.342 110.25C294.675 109.417 297.092 108.667 299.592 108C302.092 107.333 304.508 106.667 306.842 106C319.842 103 331.425 101.5 341.592 101.5C354.925 101.5 365.925 103.75 374.592 108.25C383.258 112.75 389.675 118.917 393.842 126.75C398.008 134.417 400.092 143.167 400.092 153C400.092 163.167 397.925 173.917 393.592 185.25C389.425 196.583 383.258 208 375.092 219.5C366.925 230.833 356.758 241.583 344.592 251.75C332.592 261.917 318.842 270.917 303.342 278.75C295.175 282.75 287.425 286 280.092 288.5C284.092 292.667 288.175 295.583 292.342 297.25C296.508 298.917 299.925 299.75 302.592 299.75C304.925 299.75 306.592 299.25 307.592 298.25C309.092 296.583 310.675 295.75 312.342 295.75C313.508 295.75 314.508 296.083 315.342 296.75C316.175 297.417 316.592 298.167 316.592 299C316.592 300.333 315.508 301.583 313.342 302.75C311.342 303.75 309.342 304.417 307.342 304.75C305.342 305.25 303.425 305.5 301.592 305.5ZM277.592 285.5C281.425 284.167 285.425 282.5 289.592 280.5C293.925 278.667 298.342 276.417 302.842 273.75C321.675 262.917 337.258 250.75 349.592 237.25C362.092 223.583 371.425 209.75 377.592 195.75C383.925 181.75 387.092 168.75 387.092 156.75C387.092 142.417 382.758 130.667 374.092 121.5C365.425 112.167 352.425 107.5 335.092 107.5C326.758 107.5 317.342 108.75 306.842 111.25C304.008 111.917 301.175 112.75 298.342 113.75C295.508 114.583 292.675 115.583 289.842 116.75C279.675 143.417 272.675 166.5 268.842 186C265.008 205.333 263.175 221.833 263.342 235.5C271.508 232.667 280.258 230.417 289.592 228.75C299.092 227.083 308.925 226.25 319.092 226.25C320.925 226.25 322.758 226.333 324.592 226.5C326.592 226.5 328.592 226.583 330.592 226.75C332.758 226.917 333.842 227.417 333.842 228.25C333.842 229.583 331.342 230.25 326.342 230.25C324.175 230.25 321.925 230.167 319.592 230C317.425 229.833 315.258 229.75 313.092 229.75C303.758 229.75 294.842 230.667 286.342 232.5C277.842 234.333 270.175 236.667 263.342 239.5C263.842 250.667 265.425 260 268.092 267.5C270.758 274.833 273.925 280.833 277.592 285.5ZM252.592 290C258.425 290 265.092 289 272.592 287C269.092 281.667 266.008 275.25 263.342 267.75C260.842 260.083 259.008 251.417 257.842 241.75C249.842 245.75 243.342 250 238.342 254.5C234.508 257.833 231.675 261.167 229.842 264.5C228.008 267.833 227.092 270.917 227.092 273.75C227.092 278.417 229.342 282.25 233.842 285.25C238.342 288.417 244.592 290 252.592 290Z" fill="#02C2FF"/>
<path d="M119.463 101.66C129.229 102.246 137.432 102.734 144.072 103.125C150.908 103.32 156.572 103.516 161.064 103.711C166.143 103.906 170.439 103.906 173.955 103.711C177.471 103.516 182.256 103.027 188.311 102.246C193.389 101.66 200.127 100.781 208.525 99.6094C217.119 98.2422 227.764 96.4844 240.459 94.3359C235.967 98.8281 232.451 102.93 229.912 106.641C227.568 110.156 225.713 113.184 224.346 115.723C222.783 118.848 221.709 121.484 221.123 123.633C220.732 125.586 221.123 130.469 222.295 138.281C223.467 146.094 225.127 155.371 227.275 166.113C229.424 176.66 231.768 187.988 234.307 200.098C236.846 212.012 239.385 223.242 241.924 233.789C244.463 244.141 246.709 253.027 248.662 260.449C250.811 267.676 252.373 271.973 253.35 273.34C256.279 277.441 258.135 280.176 258.916 281.543C259.697 282.715 261.064 283.789 263.018 284.766C263.799 285.156 265.068 285.742 266.826 286.523C268.389 287.305 270.439 288.281 272.979 289.453C275.713 290.625 279.131 291.992 283.232 293.555C275.615 293.945 269.072 294.238 263.604 294.434C258.135 294.434 253.643 294.531 250.127 294.727C246.025 294.922 242.51 295.117 239.58 295.312C236.65 295.312 233.135 295.508 229.033 295.898C225.518 296.289 220.928 296.68 215.264 297.07C209.795 297.461 203.35 297.852 195.928 298.242C199.834 295.508 202.959 293.066 205.303 290.918C207.842 288.574 209.795 286.621 211.162 285.059C212.725 283.105 213.799 281.348 214.385 279.785C214.775 278.027 215.068 275.391 215.264 271.875C215.459 268.75 215.459 264.648 215.264 259.57C215.068 254.297 214.58 247.461 213.799 239.062L136.748 246.973C134.795 250.293 133.33 253.223 132.354 255.762C131.377 258.105 130.693 260.156 130.303 261.914C129.717 264.062 129.521 265.82 129.717 267.188C130.107 268.75 130.791 270.605 131.768 272.754C132.744 274.707 134.111 277.051 135.869 279.785C137.822 282.324 140.654 285.352 144.365 288.867C139.482 288.672 134.502 288.574 129.424 288.574C124.346 288.574 119.658 288.672 115.361 288.867C110.283 289.062 105.303 289.258 100.42 289.453C95.5371 289.648 89.9707 289.941 83.7207 290.332C78.4473 290.723 72.2949 291.211 65.2637 291.797C58.0371 292.188 50.3223 292.773 42.1191 293.555C47.1973 291.211 51.4941 288.867 55.0098 286.523C58.5254 283.984 61.4551 281.641 63.7988 279.492C66.5332 277.148 68.877 274.902 70.8301 272.754C72.1973 270.801 74.9316 266.309 79.0332 259.277C83.1348 252.051 87.7246 243.555 92.8027 233.789C98.0762 224.023 103.545 213.574 109.209 202.441C115.068 191.309 120.342 180.859 125.029 171.094C129.717 161.133 133.525 152.539 136.455 145.312C139.385 138.086 140.85 133.398 140.85 131.25C140.459 128.711 139.482 125.879 137.92 122.754C136.553 120.02 134.404 116.895 131.475 113.379C128.74 109.863 124.736 105.957 119.463 101.66ZM210.283 217.383C209.111 210.547 208.037 204.688 207.061 199.805C206.084 194.727 205.303 190.527 204.717 187.207C203.936 183.301 203.35 179.883 202.959 176.953C202.373 174.219 201.689 170.703 200.908 166.406C200.127 162.695 199.15 158.105 197.979 152.637C197.002 146.973 195.732 140.234 194.17 132.422C183.037 154.688 174.346 171.973 168.096 184.277C162.041 196.387 157.646 205.273 154.912 210.938C151.592 217.578 149.736 221.484 149.346 222.656L210.283 217.383Z" fill="#02C2FF"/>
</g>
<ellipse cx="218.5" cy="203.5" rx="218.5" ry="203.5" fill="#02101C"/>
<g style="mix-blend-mode:luminosity">
<path d="M301.592 305.5C291.592 305.5 282.675 300.333 274.842 290C264.175 293.167 254.425 294.75 245.592 294.75C235.925 294.75 228.342 292.917 222.842 289.25C217.342 285.75 214.592 281.333 214.592 276C214.592 271.833 216.342 267.333 219.842 262.5C223.342 257.667 228.758 252.917 236.092 248.25C239.092 246.417 242.342 244.583 245.842 242.75C249.508 240.917 253.425 239.25 257.592 237.75C257.092 232.417 256.842 226.75 256.842 220.75C256.842 207.083 258.342 192.083 261.342 175.75C264.342 159.25 269.342 141.5 276.342 122.5C264.008 128.667 252.675 136 242.342 144.5C232.008 152.833 224.008 161.417 218.342 170.25C216.508 173.25 214.258 174.75 211.592 174.75C209.758 174.75 208.842 173.833 208.842 172C208.842 170.667 209.592 168.667 211.092 166C212.425 163.333 214.842 160 218.342 156C225.008 148.333 233.675 140.917 244.342 133.75C255.008 126.583 266.675 120.417 279.342 115.25C282.175 107.417 285.425 99.75 289.092 92.25C290.092 90.0833 291.592 89 293.592 89C294.925 89 296.008 89.5 296.842 90.5C297.842 91.3333 298.342 92.4167 298.342 93.75C298.342 94.4167 298.175 95.25 297.842 96.25C296.842 98.5833 295.842 100.917 294.842 103.25C294.008 105.583 293.175 107.917 292.342 110.25C294.675 109.417 297.092 108.667 299.592 108C302.092 107.333 304.508 106.667 306.842 106C319.842 103 331.425 101.5 341.592 101.5C354.925 101.5 365.925 103.75 374.592 108.25C383.258 112.75 389.675 118.917 393.842 126.75C398.008 134.417 400.092 143.167 400.092 153C400.092 163.167 397.925 173.917 393.592 185.25C389.425 196.583 383.258 208 375.092 219.5C366.925 230.833 356.758 241.583 344.592 251.75C332.592 261.917 318.842 270.917 303.342 278.75C295.175 282.75 287.425 286 280.092 288.5C284.092 292.667 288.175 295.583 292.342 297.25C296.508 298.917 299.925 299.75 302.592 299.75C304.925 299.75 306.592 299.25 307.592 298.25C309.092 296.583 310.675 295.75 312.342 295.75C313.508 295.75 314.508 296.083 315.342 296.75C316.175 297.417 316.592 298.167 316.592 299C316.592 300.333 315.508 301.583 313.342 302.75C311.342 303.75 309.342 304.417 307.342 304.75C305.342 305.25 303.425 305.5 301.592 305.5ZM277.592 285.5C281.425 284.167 285.425 282.5 289.592 280.5C293.925 278.667 298.342 276.417 302.842 273.75C321.675 262.917 337.258 250.75 349.592 237.25C362.092 223.583 371.425 209.75 377.592 195.75C383.925 181.75 387.092 168.75 387.092 156.75C387.092 142.417 382.758 130.667 374.092 121.5C365.425 112.167 352.425 107.5 335.092 107.5C326.758 107.5 317.342 108.75 306.842 111.25C304.008 111.917 301.175 112.75 298.342 113.75C295.508 114.583 292.675 115.583 289.842 116.75C279.675 143.417 272.675 166.5 268.842 186C265.008 205.333 263.175 221.833 263.342 235.5C271.508 232.667 280.258 230.417 289.592 228.75C299.092 227.083 308.925 226.25 319.092 226.25C320.925 226.25 322.758 226.333 324.592 226.5C326.592 226.5 328.592 226.583 330.592 226.75C332.758 226.917 333.842 227.417 333.842 228.25C333.842 229.583 331.342 230.25 326.342 230.25C324.175 230.25 321.925 230.167 319.592 230C317.425 229.833 315.258 229.75 313.092 229.75C303.758 229.75 294.842 230.667 286.342 232.5C277.842 234.333 270.175 236.667 263.342 239.5C263.842 250.667 265.425 260 268.092 267.5C270.758 274.833 273.925 280.833 277.592 285.5ZM252.592 290C258.425 290 265.092 289 272.592 287C269.092 281.667 266.008 275.25 263.342 267.75C260.842 260.083 259.008 251.417 257.842 241.75C249.842 245.75 243.342 250 238.342 254.5C234.508 257.833 231.675 261.167 229.842 264.5C228.008 267.833 227.092 270.917 227.092 273.75C227.092 278.417 229.342 282.25 233.842 285.25C238.342 288.417 244.592 290 252.592 290Z" fill="#02C2FF"/>
<path d="M119.463 101.66C129.229 102.246 137.432 102.734 144.072 103.125C150.908 103.32 156.572 103.516 161.064 103.711C166.143 103.906 170.439 103.906 173.955 103.711C177.471 103.516 182.256 103.027 188.311 102.246C193.389 101.66 200.127 100.781 208.525 99.6094C217.119 98.2422 227.764 96.4844 240.459 94.3359C235.967 98.8281 232.451 102.93 229.912 106.641C227.568 110.156 225.713 113.184 224.346 115.723C222.783 118.848 221.709 121.484 221.123 123.633C220.732 125.586 221.123 130.469 222.295 138.281C223.467 146.094 225.127 155.371 227.275 166.113C229.424 176.66 231.768 187.988 234.307 200.098C236.846 212.012 239.385 223.242 241.924 233.789C244.463 244.141 246.709 253.027 248.662 260.449C250.811 267.676 252.373 271.973 253.35 273.34C256.279 277.441 258.135 280.176 258.916 281.543C259.697 282.715 261.064 283.789 263.018 284.766C263.799 285.156 265.068 285.742 266.826 286.523C268.389 287.305 270.439 288.281 272.979 289.453C275.713 290.625 279.131 291.992 283.232 293.555C275.615 293.945 269.072 294.238 263.604 294.434C258.135 294.434 253.643 294.531 250.127 294.727C246.025 294.922 242.51 295.117 239.58 295.312C236.65 295.312 233.135 295.508 229.033 295.898C225.518 296.289 220.928 296.68 215.264 297.07C209.795 297.461 203.35 297.852 195.928 298.242C199.834 295.508 202.959 293.066 205.303 290.918C207.842 288.574 209.795 286.621 211.162 285.059C212.725 283.105 213.799 281.348 214.385 279.785C214.775 278.027 215.068 275.391 215.264 271.875C215.459 268.75 215.459 264.648 215.264 259.57C215.068 254.297 214.58 247.461 213.799 239.062L136.748 246.973C134.795 250.293 133.33 253.223 132.354 255.762C131.377 258.105 130.693 260.156 130.303 261.914C129.717 264.062 129.521 265.82 129.717 267.188C130.107 268.75 130.791 270.605 131.768 272.754C132.744 274.707 134.111 277.051 135.869 279.785C137.822 282.324 140.654 285.352 144.365 288.867C139.482 288.672 134.502 288.574 129.424 288.574C124.346 288.574 119.658 288.672 115.361 288.867C110.283 289.062 105.303 289.258 100.42 289.453C95.5371 289.648 89.9707 289.941 83.7207 290.332C78.4473 290.723 72.2949 291.211 65.2637 291.797C58.0371 292.188 50.3223 292.773 42.1191 293.555C47.1973 291.211 51.4941 288.867 55.0098 286.523C58.5254 283.984 61.4551 281.641 63.7988 279.492C66.5332 277.148 68.877 274.902 70.8301 272.754C72.1973 270.801 74.9316 266.309 79.0332 259.277C83.1348 252.051 87.7246 243.555 92.8027 233.789C98.0762 224.023 103.545 213.574 109.209 202.441C115.068 191.309 120.342 180.859 125.029 171.094C129.717 161.133 133.525 152.539 136.455 145.312C139.385 138.086 140.85 133.398 140.85 131.25C140.459 128.711 139.482 125.879 137.92 122.754C136.553 120.02 134.404 116.895 131.475 113.379C128.74 109.863 124.736 105.957 119.463 101.66ZM210.283 217.383C209.111 210.547 208.037 204.688 207.061 199.805C206.084 194.727 205.303 190.527 204.717 187.207C203.936 183.301 203.35 179.883 202.959 176.953C202.373 174.219 201.689 170.703 200.908 166.406C200.127 162.695 199.15 158.105 197.979 152.637C197.002 146.973 195.732 140.234 194.17 132.422C183.037 154.688 174.346 171.973 168.096 184.277C162.041 196.387 157.646 205.273 154.912 210.938C151.592 217.578 149.736 221.484 149.346 222.656L210.283 217.383Z" fill="#02C2FF"/>
</g>
</svg>
